inDegrees=yes
nColumns=22
nRows=26
DataType=double
version=3
OpenSimVersion=4.5
endheader
time	pelvis_tilt	pelvis_list	pelvis_rotation	pelvis_tx	pelvis_ty	pelvis_tz	hip_flexion_r	hip_adduction_r	hip_rotation_r	knee_angle_r	ankle_angle_r	mtp_angle_r	hip_flexion_l	hip_adduction_l	hip_rotation_l	knee_angle_l	ankle_angle_l	mtp_angle_l	lumbar_extension	lumbar_bending	lumbar_rotation
0	-0.3777442601377552	5.35985166068325	1.088786835167884	0	0.9426517188516118	-0.04633082243253438	28.17961646878327	-5.988395860706206	-13.29571840404168	-14.26115451856608	-1.933852735304599	0	-12.52884263155026	7.106874150343797	-19.80635918770781	-9.993702567743313	8.943454879300361	0	-7.105579820703893	-5.450209365112539	-4.088872005815121
0.01146365452435376	-0.4842197429256391	5.12103409293722	1.32242573392341	0.01615225903826289	0.9429913616106513	-0.04524709100959769	27.25284818308659	-5.668405391409529	-13.08239513932438	-14.42558841645617	-1.648793548917574	0	-12.6924727746364	6.41985419537477	-19.93990749687992	-11.20260117295273	7.593735469912503	0	-6.633232286372757	-5.066477400233159	-4.124110809530766
0.02292730904870752	-0.6097246070016294	4.738465862385757	1.463798108510175	0.03206868069630275	0.9435808477112398	-0.04398724242500054	26.63128022108629	-5.228190984319027	-12.90995844392718	-14.87053373581928	-2.083358302093911	0	-12.70147139997727	5.552963404570874	-20.14995165262877	-12.60131214805592	6.181041776454336	0	-6.188139338543196	-4.495852449811794	-4.100371718102014
0.03439096357306128	-0.7555939786312269	4.212543656087933	1.493363719784307	0.04766346653539544	0.9443524894808031	-0.04254947293239357	26.36490248636595	-4.674915738943841	-12.74031433774167	-15.76662951470498	-2.782308461579007	0	-12.53629395474146	4.506590733319755	-20.44372759870463	-14.22974169744875	4.732543111941823	0	-5.782727210021212	-3.731917683811647	-4.006883358222064
0.04585461809741505	-0.9161969491661091	3.621618230446285	1.415640313721878	0.06300503889615372	0.9452402566115318	-0.04094104895574843	26.37981042558999	-4.097059609346265	-12.65044595590156	-17.15467607750653	-3.033672962702815	0	-12.18535436093936	3.349729881767503	-20.81078755774862	-16.14214121310044	3.209205265951168	0	-5.412897567306006	-2.869081122149968	-3.849281540080334
0.0573182726217688	-1.084742669231518	3.034360237099253	1.253785705831299	0.0782132368584656	0.9462315010672838	-0.03914653309799231	26.5096081388598	-3.554184095770084	-12.78595446819436	-18.77739138617812	-2.855244774196175	0	-11.62047118722595	2.124244445155362	-21.22984905080854	-18.42229980828142	1.54226467494359	0	-5.061253704744058	-2.00288281380955	-3.642180991359722
0.06878192714612257	-1.262213624612841	2.51609988547252	1.050051016146718	0.09345298911181099	0.9473466526661637	-0.0370897865056831	26.5340200372061	-3.063191711994711	-13.15966113905132	-20.20279746957964	-2.562384554350813	0	-10.81175196560284	0.8609207571134421	-21.62685254347215	-21.13297575462339	-0.3353723053946737	0	-4.685948607120602	-1.245688196733832	-3.41598317846009
0.08024558167047634	-1.454607502972534	2.084302782708196	0.8404308395130008	0.1087191270961948	0.9485444252689198	-0.03474734186216365	26.35519756327497	-2.605719456996975	-13.62037773668552	-21.2609174483702	-2.108950235544996	0	-9.697958350667633	-0.4551239036512517	-21.91277593601349	-24.38229615874663	-2.318037398417038	0	-4.2665280575318	-0.6401735918012644	-3.182673779807272
0.0917092361948301	-1.673089789851376	1.724159083790272	0.6572055138715359	0.1238456483924011	0.9497194383224998	-0.03214387352614572	25.96885263095249	-2.159070351416691	-14.08831042139785	-21.9101592462895	-1.529956581826112	0	-8.202192229516987	-1.865270651923316	-22.03871329258976	-28.35200388466981	-3.831660355363085	0	-3.808435859500082	-0.1817425652512479	-2.946823545290593
0.1031728907191838	-1.923166232836661	1.398249937290851	0.5168948401308235	0.1386681647821261	0.9507554390066911	-0.02934421528674145	25.44620916966584	-1.699050122340622	-14.52696499232589	-22.25587130577058	-0.8293775865824846	0	-6.336880272401752	-3.387745813229004	-21.97685448959423	-32.97040456762412	-4.772849050821015	0	-3.326508605481531	0.1713044437522011	-2.705931539792046
0.1146365452435376	-2.205321597379854	1.077618637746611	0.4250431943983661	0.1531132492639009	0.9515962914562801	-0.02642917660003565	24.84965880315865	-1.212569635536469	-14.93105613405353	-22.38672938706466	-0.06990646134205328	0	-4.218459326422007	-4.982147509136695	-21.70854240837127	-37.85984556074861	-5.458519478658625	0	-2.831300329749013	0.4569596461390892	-2.456195371245759
0.1261001997678914	-2.512438316517201	0.7338322789891769	0.3728126246022349	0.1671616525370608	0.9522732455028718	-0.02346942851518116	24.22336400877464	-0.6819619809158437	-15.2984526805938	-22.37834392949781	0.6939342857778851	0	-1.97001878711733	-6.608440660426153	-21.26817034337585	-42.63726071210725	-6.336905645693583	0	-2.33570639225304	0.7194399432362756	-2.190750079473115
0.1375638542922451	-2.83223844478768	0.3662667507058942	0.3436742098191859	0.1807719340597211	0.9528424609324377	-0.02053801354059565	23.60142578197222	-0.1164800158352009	-15.62471482023683	-22.2924452240513	1.393324143565135	0	0.3607710348825041	-8.213975065375827	-20.67593087730037	-47.15589524048072	-7.522796731870407	0	-1.861312819640606	0.9763795696164355	-1.903922416580111
0.1490275088165989	-3.151801268504133	0.0328856219086964	0.3092869350463233	0.193921639340177	0.9533733966942745	-0.01773441763718343	22.99443483631219	0.4203308852851274	-15.8889596296306	-22.1668857042021	2.042480474613919	0	2.735725746571754	-9.645979577572406	-19.92274026409574	-51.27554790705594	-8.963749731192779	0	-1.428741858084524	1.185318672297724	-1.583244404951728
0.1604911633409527	-3.453540731170875	-0.215773375254542	0.2368332361327808	0.2066671405232435	0.9539773941147298	-0.01516088742625455	22.36608990982332	0.8849591916774191	-16.03740172093377	-21.97626785533523	2.657320242963652	0	5.063923732081435	-10.74334956317165	-19.05028058327467	-54.76728957479632	-10.37331897566612	0	-1.054326709746217	1.316962605720786	-1.210997654271941
0.1719548178653064	-3.723879363825976	-0.4100071639969613	0.1240086153081582	0.219050000585477	0.9547249666410774	-0.01283222918134747	21.67426551435618	1.314710085496766	-16.05231571352291	-21.67226668993189	3.207884785735228	0	7.302980366833872	-11.54313658983642	-18.16452073336113	-57.60758211925435	-11.12112616037941	0	-0.750936648051323	1.413405120501258	-0.7860899277343648
0.1834184723896602	-3.953984127125961	-0.5570769723171939	-0.02412704975738835	0.2310525125832473	0.9556340509117249	-0.01070764871943662	20.90641395873748	1.714776364532518	-15.95267336467949	-21.24754345578807	3.682672933476168	0	9.472323439828516	-12.09896431009175	-17.33228402398114	-59.90548891541413	-10.85374573345718	0	-0.5339159233962898	1.473974458383355	-0.3064318128527784
0.1948821269140139	-4.139922536948161	-0.6525489696167504	-0.1981567811107201	0.2426499925043406	0.9566932186428718	-0.008740625959161001	20.06666687395466	2.073758108311553	-15.76501117513604	-20.71998775468262	4.099618658343946	0	11.62487682887518	-12.45857279004514	-16.58358841373611	-61.77645777694617	-9.995524117541189	0	-0.4117244927162819	1.480781417706558	0.2268255436885807
0.2063457814383677	-4.279286930561926	-0.6936503348594543	-0.3907835753139903	0.2538497645422877	0.9578641562503254	-0.006890658130427871	19.16308998987465	2.381740552002174	-15.51404480029135	-20.11783913407913	4.498032903587633	0	13.7927046607856	-12.66436442054158	-15.94483854278112	-63.31303339541775	-8.819495537227869	0	-0.3850053324851452	1.41977391670655	0.8107717600661455
0.2178094359627215	-4.372731138591108	-0.6812221236763835	-0.5980299480994475	0.2646838024958871	0.9590877309453875	-0.005129153993532456	18.20721657292267	2.633437650565144	-15.21809543126429	-19.47278110112173	4.92490799671774	0	15.98334160274063	-12.75080707356864	-15.43912066057122	-64.57020973913826	-7.412057737463659	0	-0.4474010691556685	1.285329163835322	1.440758365151138
0.2292730904870752	-4.424333988124186	-0.6221989831837202	-0.8190059515490352	0.2752022527924257	0.9603014326541539	-0.003438524522594954	17.21053845951721	2.83146688449445	-14.89080428865926	-18.80606088930442	5.396309695217782	0	18.18373430756466	-12.7475534359622	-15.08327294216052	-65.55093258092857	-5.871326163667265	0	-0.586639215412778	1.083280287937978	2.110540265565279
0.240736745011429	-4.439785036903648	-0.5270078243952082	-1.057325471282906	0.2854683208452333	0.9614514318859663	-0.001806317518026334	16.18772294075436	2.982693615559331	-14.5414265683077	-18.14191474147207	5.920878245798249	0	20.35732251186626	-12.67532212737244	-14.88451688823354	-66.20848643904512	-4.232598528452472	0	-0.787229134648566	0.8264474819147096	2.816532475982842
0.2522003995357828	-4.425953398264179	-0.404402677102609	-1.316847032762321	0.2955495552691747	0.9624881345864836	-0.000224071691289308	15.15449490696829	3.09246646591597	-14.17614708038287	-17.50435888945601	6.504875880788973	0	22.46340429474193	-12.54663253340214	-14.83947640388604	-66.49614411864847	-2.504972856378795	0	-1.031258030558686	0.5265121174828915	3.554800824935327
0.2636640540601365	-4.389867422971379	-0.2625143117640723	-1.599709727571153	0.30551263033708	0.9633703861437388	0.001312031224330289	14.1257638425086	3.165655093500175	-13.79928135786055	-16.91443621354513	7.144909710810728	0	24.46383841474432	-12.37036511430433	-14.93758081158004	-66.37166361894488	-0.7599444525098852	0	-1.300337367993244	0.1949508462256873	4.319514487684571
0.2751277085844903	-4.33824954005228	-0.1194725270441369	-1.908616809883194	0.3154302101101979	0.9640751715431012	0.002797367299348487	13.11201209994146	3.218232083690498	-13.41500238654522	-16.38510095499714	7.830328850593198	0	26.30837263895009	-12.15944542589035	-15.16227264481422	-65.756923703757	0.9409653534010753	0	-1.576051001418972	-0.1424183153952162	5.107202531493997
0.286591363108844	-4.277039096883167	0.005395411803861526	-2.244511220783269	0.3253782109406779	0.9645942806419262	0.004222312663548395	12.11208958212123	3.269635894855479	-13.02563545741821	-15.90677943598605	8.531420150662397	0	27.94219808234917	-11.92432372303877	-15.49434680240374	-64.55841804704279	2.502523375616381	0	-1.840904981338381	-0.4573867101375123	5.913868362090613
